<?xml version="1.0" standalone="no"?>
<!DOCTYPE svg PUBLIC "-//W3C//DTD SVG 20010904//EN"
 "http://www.w3.org/TR/2001/REC-SVG-20010904/DTD/svg10.dtd">
<svg version="1.0" xmlns="http://www.w3.org/2000/svg"
 width="2184.000000pt" height="1534.000000pt" viewBox="0 0 2184.000000 1534.000000"
 preserveAspectRatio="xMidYMid meet">
<metadata>
Created by potrace 1.15, written by Peter Selinger 2001-2017
</metadata>
<g transform="translate(0.000000,1534.000000) scale(0.100000,-0.100000)"
fill="#000000" stroke="none">
<path d="M10335 15334 c-33 -2 -154 -8 -270 -14 -3782 -193 -7205 -1736 -8917
-4021 -641 -855 -1007 -1742 -1125 -2724 -26 -216 -26 -875 0 -1085 20 -162
55 -373 88 -527 l22 -103 1547 0 c851 0 2053 -3 2671 -6 l1124 -7 275 808
c151 444 276 814 278 821 3 12 -341 14 -2262 14 l-2266 0 0 29 c0 44 47 289
81 426 331 1312 1390 2513 3014 3420 566 316 1326 641 1990 850 1136 358 2237
555 3550 637 325 20 1418 17 1750 -5 1935 -129 3611 -554 5079 -1288 131 -66
241 -117 243 -115 8 8 472 1349 473 1364 0 15 -360 193 -638 316 -1327 588
-2826 975 -4392 1136 -589 60 -839 72 -1585 75 -368 1 -697 1 -730 -1z"/>
<path d="M7300 10867 c0 -2 -124 -371 -275 -820 l-274 -817 1263 -2 1263 -3
-448 -1329 c-247 -731 -460 -1348 -474 -1371 -31 -53 -111 -127 -170 -155
-117 -57 -55 -54 -1280 -58 l-1130 -3 -277 -812 c-153 -447 -278 -816 -278
-820 0 -4 769 -7 1709 -7 1883 0 1850 -1 2036 61 366 122 661 439 828 889 46
125 1767 5228 1767 5240 0 6 -786 10 -2130 10 -1171 0 -2130 -2 -2130 -3z"/>
<path d="M11396 7782 c-571 -1698 -1041 -3093 -1044 -3099 -3 -10 175 -13 869
-13 l874 0 249 743 c137 408 303 901 369 1095 l119 352 973 0 973 0 25 73 c13
39 138 402 276 804 138 403 251 737 251 743 0 7 -326 11 -973 12 l-972 3 124
368 123 367 1263 0 1262 0 273 808 c150 444 275 813 278 820 3 9 -428 12
-2134 12 l-2139 0 -1039 -3088z"/>
<path d="M16365 8478 c-3 -7 -128 -373 -278 -813 l-273 -800 2268 -3 c1369 -1
2268 -6 2268 -11 0 -5 -11 -74 -24 -153 -194 -1141 -922 -2210 -2111 -3096
-2289 -1706 -5928 -2472 -9440 -1986 -1429 198 -2771 603 -3928 1186 -199 100
-209 104 -218 84 -5 -12 -112 -320 -239 -686 l-230 -665 23 -17 c32 -24 477
-236 707 -336 1435 -623 3048 -1009 4750 -1136 444 -34 649 -41 1235 -41 691
0 1032 16 1635 75 2508 247 4848 1089 6545 2357 1478 1104 2404 2443 2695
3893 71 354 83 477 88 905 4 395 -2 525 -39 780 -18 126 -71 413 -85 458 -5
16 -141 17 -2675 17 -2127 0 -2671 -3 -2674 -12z"/>
</g>
</svg>
